{"title":"Maleficent 2014 CAM WATERMARK REMOVED x264 Pimp4003","uid":10293960,"size":729108136,"categoryP":"video","categoryS":"movies","magnet":"?xt=urn:btih:685f4c7e0a9798e8db62240fd4d0e6f917b0fb62&amp;dn=Maleficent+2014+CAM+WATERMARK+REMOVED+x264+Pimp4003&amp;tr=udp%3A%2F%2Ftracker.openbittorrent.com%3A80&amp;tr=udp%3A%2F%2Fopen.demonii.com%3A1337&amp;tr=udp%3A%2F%2Ftracker.coppersurfer.tk%3A6969&amp;tr=udp%3A%2F%2Fexodus.desync.com%3A6969","seeders":14,"leechers":0,"uploader":"shawnmurthy","files":-1,"time":1401897989,"description":"DID THE USUAL...REMOVED THE WATERMARK...SYNCED UP THE AUDIO IT WAS OFF BY 2 MINUTES...AND MADE THE DARK SCENES BRIGHTER....ENJOY.....PIMP4003\n\nSOURCE: SpEcTre...THANKS\n\nSCREENSHOTS\n &lt;a href=&quot;\nhttp://pimp4003.net/torrents.php?id=685f4c7e0a9798e8db62240fd4d0e6f917b0fb62&quot; rel=&quot;nofollow&quot; target=&quot;_NEW&quot;&gt;\nhttp://pimp4003.net/torrents.php?id=685f4c7e0a9798e8db62240fd4d0e6f917b0fb62&lt;/a&gt;\n\nMaleficent 2014 CAM WATERMARK REMOVED x264 Pimp4003\n &lt;a href=&quot;\nhttp://www.imdb.com/title/tt1587310/&quot; rel=&quot;nofollow&quot; target=&quot;_NEW&quot;&gt;\nhttp://www.imdb.com/title/tt1587310/&lt;/a&gt;\n\nA vindictive fairy is driven to curse an infant princess only to realize the child may be the only one who can restore peace.\n\nDirector: Robert Stromberg\nWriters: Linda Woolverton, Charles Perrault (based from the story &quot;La Belle au bois dormant&quot; by), 9 more credits Â»\nStars: Angelina Jolie, Elle Fanning, Sharlto Copley | See full cast and crew Â»\n\nVideo\nID                                       : 0\nFormat                                   : MPEG-4 Visual\nFormat profile                           : Advanced Simple@L5\nFormat settings, BVOP                    : 2\nFormat settings, QPel                    : Yes\nFormat settings, GMC                     : 3 warppoints\nFormat settings, Matrix                  : Default (H.263)\nMuxing mode                              : Packed bitstream\nCodec ID                                 : XVID\nCodec ID/Hint                            : XviD\nDuration                                 : 1h 27mn\nBit rate                                 : 974 Kbps\nWidth                                    : 704 pixels\nHeight                                   : 304 pixels\nDisplay aspect ratio                     : 2.35:1\nFrame rate                               : 23.976 fps\nColor space                              : YUV\nChroma subsampling                       : 4:2:0\nBit depth                                : 8 bits\nScan type                                : Progressive\nCompression mode                         : Lossy\nBits/(Pixel*Frame)                       : 0.190\nStream size                              : 609 MiB (88%)\nWriting library                          : XviD 64\n\nAudio\nID                                       : 1\nFormat                                   : MPEG Audio\nFormat version                           : Version 1\nFormat profile                           : Layer 3\nMode                                     : Joint stereo\nMode extension                           : MS Stereo\nCodec ID                                 : 55\nCodec ID/Hint                            : MP3\nDuration                                 : 1h 27mn\nBit rate mode                            : Constant\nBit rate                                 : 128 Kbps\nChannel(s)                               : 2 channels\nSampling rate                            : 48.0 KHz\nCompression mode                         : Lossy\nStream size                              : 80.1 MiB (12%)\nAlignment                                : Split accross interleaves\nInterleave, duration                     : 42 ms (1.00 video frame)\nInterleave, preload duration             : 500 ms\n","torrent":{"xt":"urn:btih:685f4c7e0a9798e8db62240fd4d0e6f917b0fb62","amp;dn":"Maleficent+2014+CAM+WATERMARK+REMOVED+x264+Pimp4003","amp;tr":["udp%3A%2F%2Ftracker.openbittorrent.com%3A80","udp%3A%2F%2Fopen.demonii.com%3A1337","udp%3A%2F%2Ftracker.coppersurfer.tk%3A6969","udp%3A%2F%2Fexodus.desync.com%3A6969"],"infoHash":"685f4c7e0a9798e8db62240fd4d0e6f917b0fb62","infoHashBuffer":{"type":"Buffer","data":[104,95,76,126,10,151,152,232,219,98,36,15,212,208,230,249,23,176,251,98]},"announce":[],"urlList":[]}}